<?xml version="1.0" encoding="utf-8"?>
<!-- Generator: Adobe Illustrator 16.0.0, SVG Export Plug-In . SVG Version: 6.00 Build 0)  -->
<!DOCTYPE svg PUBLIC "-//W3C//DTD SVG 1.1//EN" "http://www.w3.org/Graphics/SVG/1.1/DTD/svg11.dtd">
<svg version="1.1" id="Layer_1" xmlns="http://www.w3.org/2000/svg" xmlns:xlink="http://www.w3.org/1999/xlink" x="0px" y="0px"
	 width="28.35px" height="28.35px" viewBox="0 0 28.35 28.35" enable-background="new 0 0 28.35 28.35" xml:space="preserve">
<g>
	<g>
		<g>
			<path fill="#FFFFFF" d="M25.342,4.662H3.009c-0.686,0-1.241,0.555-1.241,1.24v16.543c0,0.686,0.556,1.242,1.241,1.242h22.333
				c0.686,0,1.24-0.557,1.24-1.242V5.902C26.582,5.217,26.027,4.662,25.342,4.662z M25.756,22.445c0,0.229-0.186,0.414-0.414,0.414
				H3.009c-0.229,0-0.414-0.186-0.414-0.414V5.902c0-0.229,0.186-0.413,0.414-0.413h22.333c0.229,0,0.414,0.185,0.414,0.413V22.445
				L25.756,22.445z"/>
			<path fill="#FFFFFF" d="M24.551,6.318c-0.109-0.01-0.219,0.024-0.303,0.096l-9.541,8.014c-0.308,0.26-0.757,0.26-1.064,0
				L4.102,6.414C3.988,6.318,3.833,6.291,3.694,6.342c-0.14,0.051-0.24,0.171-0.267,0.316C3.402,6.804,3.456,6.951,3.569,7.047
				l9.541,8.014c0.615,0.52,1.514,0.52,2.128,0l9.541-8.014c0.084-0.07,0.137-0.172,0.146-0.281s-0.023-0.217-0.096-0.301
				C24.76,6.381,24.66,6.328,24.551,6.318z"/>
			<path fill="#FFFFFF" d="M9.722,15.004c-0.146-0.031-0.299,0.018-0.398,0.129l-5.79,6.203C3.429,21.443,3.39,21.6,3.433,21.744
				c0.043,0.143,0.16,0.252,0.307,0.285c0.146,0.033,0.299-0.016,0.398-0.129l5.79-6.203c0.104-0.107,0.144-0.264,0.101-0.406
				C9.985,15.146,9.868,15.037,9.722,15.004z"/>
			<path fill="#FFFFFF" d="M19.025,15.133c-0.1-0.111-0.252-0.16-0.398-0.129c-0.146,0.033-0.264,0.143-0.307,0.287
				c-0.041,0.143-0.004,0.299,0.102,0.406l5.791,6.203c0.156,0.162,0.412,0.168,0.576,0.014c0.166-0.152,0.178-0.41,0.027-0.578
				L19.025,15.133z"/>
		</g>
	</g>
</g>
</svg>
