<?xml version="1.0" encoding="utf-8"?>
<!-- Generator: Adobe Illustrator 16.0.0, SVG Export Plug-In . SVG Version: 6.00 Build 0)  -->
<!DOCTYPE svg PUBLIC "-//W3C//DTD SVG 1.1//EN" "http://www.w3.org/Graphics/SVG/1.1/DTD/svg11.dtd">
<svg version="1.1" id="Layer_1" xmlns="http://www.w3.org/2000/svg" xmlns:xlink="http://www.w3.org/1999/xlink" x="0px" y="0px"
	 width="28.35px" height="28.35px" viewBox="0 0 28.35 28.35" enable-background="new 0 0 28.35 28.35" xml:space="preserve">
<g transform="translate(-1 -1)">
	<g>
		<g>
			<path fill="#FFFFFF" d="M24.026,20.17l-3.84-2.561c-0.487-0.322-1.14-0.216-1.501,0.244l-1.117,1.438
				c-0.145,0.189-0.406,0.244-0.613,0.129l-0.213-0.117c-0.705-0.385-1.583-0.863-3.351-2.631c-1.768-1.769-2.248-2.647-2.632-3.352
				l-0.117-0.212c-0.117-0.208-0.063-0.471,0.126-0.615l1.437-1.118c0.46-0.36,0.566-1.013,0.244-1.5L9.89,6.034
				C9.56,5.538,8.897,5.389,8.387,5.696L6.781,6.661c-0.504,0.296-0.875,0.777-1.033,1.34C5.17,10.107,5.605,13.743,10.961,19.1
				c4.26,4.26,7.432,5.405,9.611,5.405c0.502,0.003,1.002-0.063,1.486-0.194c0.563-0.158,1.044-0.527,1.34-1.032l0.966-1.604
				C24.672,21.163,24.523,20.5,24.026,20.17z M23.82,21.35l-0.964,1.605c-0.213,0.363-0.559,0.632-0.964,0.747
				c-1.945,0.534-5.343,0.091-10.484-5.05c-5.142-5.142-5.584-8.539-5.05-10.484c0.115-0.406,0.383-0.752,0.748-0.965L8.712,6.24
				c0.222-0.134,0.509-0.069,0.652,0.146l1.391,2.088l1.167,1.75c0.14,0.211,0.094,0.495-0.105,0.651l-1.437,1.118
				c-0.438,0.334-0.563,0.94-0.293,1.42l0.114,0.208c0.404,0.741,0.906,1.663,2.74,3.496c1.833,1.833,2.755,2.336,3.497,2.739
				l0.207,0.115c0.48,0.27,1.086,0.145,1.42-0.293l1.118-1.438c0.156-0.199,0.44-0.245,0.651-0.105l3.839,2.561
				C23.889,20.84,23.953,21.127,23.82,21.35z"/>
			<path fill="#FFFFFF" d="M16.303,8.699c2.967,0.003,5.371,2.407,5.375,5.374c0,0.174,0.141,0.316,0.315,0.316
				s0.316-0.142,0.316-0.316c-0.004-3.315-2.69-6.002-6.007-6.006c-0.174,0-0.315,0.142-0.315,0.316
				C15.987,8.558,16.129,8.699,16.303,8.699z"/>
			<path fill="#FFFFFF" d="M16.303,10.596c1.92,0.002,3.476,1.558,3.479,3.478c0,0.174,0.141,0.316,0.315,0.316
				s0.316-0.142,0.316-0.316c-0.003-2.269-1.841-4.107-4.11-4.11c-0.174,0-0.315,0.142-0.315,0.316
				C15.987,10.454,16.129,10.596,16.303,10.596z"/>
			<path fill="#FFFFFF" d="M16.303,12.493c0.873,0.001,1.58,0.708,1.581,1.581c0,0.174,0.142,0.316,0.316,0.316
				s0.315-0.142,0.315-0.316c-0.001-1.222-0.99-2.211-2.213-2.213c-0.174,0-0.315,0.142-0.315,0.316
				C15.987,12.351,16.129,12.493,16.303,12.493z"/>
		</g>
	</g>
</g>
</svg>
