<?xml version="1.0" encoding="utf-8"?>
<!-- Generator: Adobe Illustrator 19.0.0, SVG Export Plug-In . SVG Version: 6.00 Build 0)  -->
<svg version="1.1" id="Camada_1" xmlns="http://www.w3.org/2000/svg" xmlns:xlink="http://www.w3.org/1999/xlink" x="0px" y="0px"
	 viewBox="-295 386.3 20.7 20.7" style="enable-background:new -295 386.3 20.7 20.7;" xml:space="preserve">
<style type="text/css">
	.st0{display:none;fill:#389742;}
	.st1{display:none;}
	.st2{display:inline;fill:#FFFFFF;}
	.st3{display:inline;fill:#332356;}
	.st4{display:none;fill:#FFFFFF;}
	.st5{fill:#FFFFFF;}
	.st6{fill:url(#SVGID_1_);}
	.st7{fill:url(#SVGID_2_);}
</style>
<rect id="XMLID_41_" x="-300.2" y="382.2" class="st0" width="33.1" height="28"/>
<g id="XMLID_40_" class="st1">
	<path id="XMLID_55_" class="st2" d="M-285,391.9c-0.7-0.6-1.8-0.9-3.3-0.9s-2.6,0.1-3.4,0.2v10.9h2.5v-3.9c0.2,0,0.5,0,0.8,0
		c1.5,0,2.7-0.4,3.6-1.2c0.7-0.6,1-1.5,1-2.6S-284.3,392.4-285,391.9z M-288.4,396.3c-0.4,0-0.6,0-0.8-0.1V393c0.2,0,0.5-0.1,1-0.1
		c1.2,0,1.9,0.6,2,1.6C-286.3,395.6-287.1,396.3-288.4,396.3z"/>
	<path id="XMLID_52_" class="st2" d="M-277.6,399.7c0,1.5-1.2,2.6-3.5,2.6c-1,0-2-0.2-2.6-0.6l0.4-1.8c0.5,0.3,1.4,0.6,2.1,0.6
		c0.8,0,1.1-0.3,1.1-0.7s-0.3-0.6-1.2-0.9c-1.6-0.5-2.3-1.5-2.3-2.4c0-1.5,1.3-2.6,3.3-2.6c0.9,0,1.8,0.2,2.3,0.5l-0.4,1.7
		c-0.4-0.2-1-0.5-1.7-0.5c-0.6,0-1,0.3-1,0.7s0.3,0.6,1.3,0.9C-278.3,397.7-277.6,398.5-277.6,399.7z"/>
</g>
<g id="XMLID_43_" class="st1">
	<path id="XMLID_50_" class="st3" d="M-286.5,393.3c-0.2,0.6-1.1,4.4-1.1,4.4h2.4C-285.3,397.7-286.4,393.9-286.5,393.3
		L-286.5,393.3z"/>
	<path id="XMLID_44_" class="st3" d="M-295,386.3V407h20.7v-20.7H-295z M-284.1,402.3l-0.8-2.8h-3.1l-0.8,2.8h-2.5l3.3-10.9h3.2
		l3.3,10.9H-284.1z M-278.1,402.3h-2.4v-7.9h2.4V402.3L-278.1,402.3z M-279.3,393.5c-0.8,0-1.3-0.5-1.3-1.2s0.5-1.2,1.3-1.2
		c0.8,0,1.3,0.5,1.3,1.2C-278,392.9-278.5,393.5-279.3,393.5z"/>
</g>
<path id="XMLID_93_" class="st4" d="M-276.9,392.3c0,0,0-0.1-0.1-0.1l-0.1-0.1l-0.1-0.1l0,0l-7.3-2.8c-0.1,0-0.2,0-0.4,0l-7.2,2.7
	l0,0c0,0-0.1,0-0.1,0.1l-0.1,0.1l-0.1,0.1v0.1v9c0,0.2,0.1,0.4,0.3,0.5l7.3,2.7c0.1,0,0.1,0,0.2,0s0.1,0,0.2,0l7.3-2.7
	c0.2-0.1,0.3-0.3,0.3-0.5v-8.9C-276.9,392.4-276.9,392.3-276.9,392.3z M-285.2,403.3l-6.3-2.4v-7.8l6.3,2.4V403.3z M-284.7,394.6
	L-284.7,394.6L-284.7,394.6l-5.8-2.2l5.9-2.3l5.9,2.3L-284.7,394.6z M-277.9,401l-6.3,2.3v-7.8l6.3-2.4V401z"/>
<path id="XMLID_101_" class="st4" d="M-277.7,397.2c-0.1-0.1-0.1-0.4,0-0.5c0.4-1,0.6-2.1,0.5-3.2c-0.3-1.7-1.8-3.1-3.5-3.1
	c-1.9-0.1-3.4,1.1-3.9,2.9c0,0.1,0,0.1-0.1,0.2c-0.3-1.4-1-2.2-2.2-2.8c-1.5-0.7-3.2-0.3-4.3,0.9c-1.1,1.2-1.3,3-0.5,4.4
	c0.1,0.2,0.2,0.3,0.1,0.6c-0.4,0.8-0.6,1.7-0.6,2.7c0,1.7,1.1,3,2.7,3.5s3.3-0.2,4.2-1.5c0.3-0.4,0.5-0.9,0.7-1.3
	c0.4,1.5,1.4,2.5,2.9,2.8c1.6,0.3,2.9-0.2,3.8-1.5S-277,398.6-277.7,397.2z M-288.5,393c0.6,0,1.2,0.4,1.2,1c0,0.5,0,0.9,0,1.4
	c-0.5,0-1,0-1.4,0c-0.6,0-1-0.5-1-1.3C-289.6,393.5-289.1,393-288.5,393z M-280.3,396.8c0.4,0.2,0.5,0.5,0.6,0.9c0,0.5,0,1,0,1.5
	c0,0.6-0.5,1.1-1.2,1.1c-0.6,0-1.2-0.5-1.2-1.1c0-0.4,0-0.7,0-1.1c0-0.2-0.1-0.3-0.3-0.3c-1.2,0-2.3,0-3.5,0c-0.7,0-1.1,0.4-1.2,1
	c0,0.1,0,0.3-0.1,0.4c-0.1,0.7-0.6,1.2-1.3,1.1c-0.6-0.1-1.1-0.7-1.1-1.3c0.1-1.9,1.3-3.2,3.1-3.6c0.2,0,0.4,0,0.7,0
	c0.8,0,1.5,0,2.3,0c1,0,1.4-0.4,1.4-1.4c0-0.8,0.6-1.3,1.4-1.2c0.6,0.1,1,0.5,1,1.1c0.1,0.9-0.2,1.6-0.7,2.3
	c-0.1,0.1-0.1,0.2-0.2,0.3C-280.6,396.7-280.5,396.8-280.3,396.8z"/>
<path id="XMLID_69_" class="st4" d="M-280.8,398.5c-0.4,0.3-0.8,0.5-1.3,0.6c-0.6,0.1-1.2-0.1-1.7-0.5c-0.4-0.4-0.7-0.8-0.8-1.4
	c0-0.6,0.2-1.1,0.5-1.5c0.4-0.4,0.8-0.6,1.4-0.7c0.1,0,0.2,0,0.3,0c0.7,0,1.3,0.3,1.8,0.8C-279.9,396.7-280,397.8-280.8,398.5z"/>
<path id="XMLID_77_" class="st4" d="M-276.7,397.1c0-0.4-0.1-0.8-0.3-1.2c-0.3-1-1-1.7-1.8-2.4c-1.7-1.3-3.4-2.6-5.1-3.9
	c-0.4-0.3-0.9-0.3-1.3,0c-0.1,0.1-0.2,0.3-0.2,0.5c0,0.2,0.1,0.4,0.3,0.5c0.7,0.6,1.4,1.1,2,1.7c0,0,0,0,0.1,0l0,0h-0.1
	c-2.1,0-4.3,0-6.4,0c-0.1,0-0.2,0-0.4,0c-0.4,0.2-0.7,0.4-0.8,0.7c-0.2,0.2-0.1,0.6,0.1,0.8c0.1,0.1,0.3,0.2,0.5,0.2
	c0.2,0,0.4,0,0.6,0c0.9,0,1.8,0,2.7,0c0,0,0,0,0.1,0c0,0-0.1,0-0.1,0.1c-2,1.5-3.9,3-5.9,4.5c-0.3,0.2-0.5,0.5-0.6,0.9
	c0,0.3,0.1,0.6,0.3,0.8c0.3,0.2,0.6,0.3,0.9,0.2c0.3,0,0.5-0.2,0.8-0.4c1-0.8,1.9-1.6,2.9-2.4c0.1,0,0.1-0.1,0.2-0.1l0,0v0.1
	c0,0.1,0,0.3,0,0.4c0,0.4,0.1,0.7,0.2,1.1c0.4,1.2,1.1,2.1,2.1,2.8c1.1,0.8,2.4,1.1,3.7,1c0.4,0,0.7-0.1,1.1-0.1
	c1.3-0.3,2.5-1,3.3-2.1C-277,399.6-276.6,398.4-276.7,397.1z M-279.9,399.3c-0.5,0.5-1.2,0.8-1.9,1c-0.3,0.1-0.7,0.1-1,0.1
	c-1.1-0.1-2-0.6-2.7-1.5c-0.3-0.4-0.4-0.8-0.5-1.3c0-0.9,0.2-1.5,0.6-2.2c0.5-0.7,1.2-1.2,2.1-1.4c0.3-0.1,0.7-0.1,1-0.1
	c0.8,0,1.6,0.3,2.3,0.9c0.6,0.5,0.9,1.1,1,1.8c0,0.2,0,0.3,0,0.4C-278.9,398-279.3,398.7-279.9,399.3z"/>
<g>
	<path class="st5" d="M-278.1,396.3l-6-6l-0.6-0.6l-4.5,4.5l-2.1,2.1c-0.2,0.2-0.2,0.6,0,0.8l4.1,4.1l2.5,2.5l4.5-4.5l0.1-0.1l2-2
		C-277.9,396.8-277.9,396.5-278.1,396.3C-278.1,396.3-278.1,396.3-278.1,396.3L-278.1,396.3z M-284.7,398.7l-2.1-2.1l2.1-2.1
		l2.1,2.1L-284.7,398.7z"/>
	
		<linearGradient id="SVGID_1_" gradientUnits="userSpaceOnUse" x1="-559.9897" y1="563.4265" x2="-560.2504" y2="563.6871" gradientTransform="matrix(11.028 0 0 11.028 5890.5596 -5820.9697)">
		<stop  offset="0.18" style="stop-color:#D8D9DD"/>
		<stop  offset="1" style="stop-color:#FFFFFF"/>
	</linearGradient>
	<path class="st6" d="M-284.7,394.6c-1.3-1.3-1.4-3.5,0-4.9l-4.5,4.5l2.5,2.5L-284.7,394.6z"/>
	
		<linearGradient id="SVGID_2_" gradientUnits="userSpaceOnUse" x1="-559.9207" y1="564.1752" x2="-559.6606" y2="563.9151" gradientTransform="matrix(11.028 0 0 11.028 5890.5596 -5820.9697)">
		<stop  offset="0.18" style="stop-color:#D8D9DD"/>
		<stop  offset="1" style="stop-color:#FFFFFF"/>
	</linearGradient>
	<path class="st7" d="M-282.6,396.6l-2.1,2.1c1.4,1.4,1.4,3.5,0,4.9l4.5-4.5L-282.6,396.6z"/>
</g>
</svg>
