<?xml version="1.0" encoding="utf-8"?>
<!-- Generator: Adobe Illustrator 19.0.0, SVG Export Plug-In . SVG Version: 6.00 Build 0)  -->
<svg version="1.1" id="Camada_1" xmlns="http://www.w3.org/2000/svg" xmlns:xlink="http://www.w3.org/1999/xlink" x="0px" y="0px"
	 viewBox="0 0 20.7 20.7" style="enable-background:new 0 0 20.7 20.7;" xml:space="preserve">
<style type="text/css">
	.st0{display:none;fill:#389742;}
	.st1{display:none;}
	.st2{display:inline;fill:#FFFFFF;}
	.st3{fill:#FFFFFF;}
	.st4{display:none;fill:#FFFFFF;}
</style>
<rect id="XMLID_41_" x="-5.2" y="-4.1" class="st0" width="33.1" height="28"/>
<g id="XMLID_40_" class="st1">
	<path id="XMLID_55_" class="st2" d="M10,5.6C9.3,5,8.2,4.7,6.7,4.7c-1.5,0-2.6,0.1-3.4,0.2v10.9h2.5v-3.9c0.2,0,0.5,0,0.8,0
		c1.5,0,2.7-0.4,3.6-1.2c0.7-0.6,1-1.5,1-2.6S10.7,6.1,10,5.6z M6.6,10C6.2,10,6,10,5.8,9.9V6.7c0.2,0,0.5-0.1,1-0.1
		c1.2,0,1.9,0.6,2,1.6C8.7,9.3,7.9,10,6.6,10z"/>
	<path id="XMLID_52_" class="st2" d="M17.4,13.4c0,1.5-1.2,2.6-3.5,2.6c-1,0-2-0.2-2.6-0.6l0.4-1.8c0.5,0.3,1.4,0.6,2.1,0.6
		c0.8,0,1.1-0.3,1.1-0.7c0-0.4-0.3-0.6-1.2-0.9c-1.6-0.5-2.3-1.5-2.3-2.4c0-1.5,1.3-2.6,3.3-2.6c0.9,0,1.8,0.2,2.3,0.5l-0.4,1.7
		c-0.4-0.2-1-0.5-1.7-0.5c-0.6,0-1,0.3-1,0.7c0,0.4,0.3,0.6,1.3,0.9C16.7,11.4,17.4,12.2,17.4,13.4z"/>
</g>
<path id="XMLID_61_" class="st3" d="M10.2,5.1H7L3.7,16h2.5L7,13.2h3.1l0.8,2.8h2.6L10.2,5.1z M7.3,11.4c0,0,1-3.7,1.1-4.4h0
	c0.2,0.6,1.2,4.4,1.2,4.4H7.3z"/>
<path id="XMLID_70_" class="st3" d="M14.4,5.9c0-0.7,0.5-1.2,1.3-1.2c0.8,0,1.3,0.5,1.3,1.2c0,0.7-0.5,1.2-1.3,1.2
	C14.9,7.2,14.4,6.6,14.4,5.9z"/>
<rect id="XMLID_71_" x="14.5" y="8.1" class="st3" width="2.4" height="7.9"/>
<path id="XMLID_93_" class="st4" d="M18.1,6c0,0,0-0.1-0.1-0.1c0,0-0.1-0.1-0.1-0.1c0,0-0.1-0.1-0.1-0.1l0,0l-7.3-2.8
	c-0.1,0-0.2,0-0.4,0L2.9,5.6l0,0c0,0-0.1,0-0.1,0.1c0,0-0.1,0.1-0.1,0.1c0,0-0.1,0.1-0.1,0.1c0,0,0,0.1,0,0.1V15
	c0,0.2,0.1,0.4,0.3,0.5l7.3,2.7c0.1,0,0.1,0,0.2,0c0.1,0,0.1,0,0.2,0l7.3-2.7c0.2-0.1,0.3-0.3,0.3-0.5V6.1C18.1,6.1,18.1,6,18.1,6z
	 M9.8,17l-6.3-2.4V6.8l6.3,2.4V17z M10.3,8.3L10.3,8.3L10.3,8.3L4.5,6.1l5.9-2.3l5.9,2.3L10.3,8.3z M17.1,14.7L10.8,17V9.2l6.3-2.4
	V14.7z"/>
<path id="XMLID_101_" class="st4" d="M17.3,10.9c-0.1-0.1-0.1-0.4,0-0.5c0.4-1,0.6-2.1,0.5-3.2c-0.3-1.7-1.8-3.1-3.5-3.1
	c-1.9-0.1-3.4,1.1-3.9,2.9c0,0.1,0,0.1-0.1,0.2C10,5.8,9.3,5,8.1,4.4C6.6,3.7,4.9,4.1,3.8,5.3C2.7,6.5,2.5,8.3,3.3,9.7
	c0.1,0.2,0.2,0.3,0.1,0.6C3,11.1,2.8,12,2.8,13c0,1.7,1.1,3,2.7,3.5C7.1,17,8.8,16.3,9.7,15c0.3-0.4,0.5-0.9,0.7-1.3
	c0.4,1.5,1.4,2.5,2.9,2.8c1.6,0.3,2.9-0.2,3.8-1.5C18,13.7,18,12.3,17.3,10.9z M6.5,6.7c0.6,0,1.2,0.4,1.2,1c0,0.5,0,0.9,0,1.4
	c-0.5,0-1,0-1.4,0c-0.6,0-1-0.5-1-1.3C5.4,7.2,5.9,6.7,6.5,6.7z M14.7,10.5c0.4,0.2,0.5,0.5,0.6,0.9c0,0.5,0,1,0,1.5
	c0,0.6-0.5,1.1-1.2,1.1c-0.6,0-1.2-0.5-1.2-1.1c0-0.4,0-0.7,0-1.1c0-0.2-0.1-0.3-0.3-0.3c-1.2,0-2.3,0-3.5,0c-0.7,0-1.1,0.4-1.2,1
	c0,0.1,0,0.3-0.1,0.4c-0.1,0.7-0.6,1.2-1.3,1.1c-0.6-0.1-1.1-0.7-1.1-1.3c0.1-1.9,1.3-3.2,3.1-3.6c0.2,0,0.4,0,0.7,0
	c0.8,0,1.5,0,2.3,0c1,0,1.4-0.4,1.4-1.4c0-0.8,0.6-1.3,1.4-1.2c0.6,0.1,1,0.5,1,1.1c0.1,0.9-0.2,1.6-0.7,2.3
	c-0.1,0.1-0.1,0.2-0.2,0.3C14.4,10.4,14.5,10.5,14.7,10.5z"/>
<path id="XMLID_69_" class="st4" d="M14.2,12.2c-0.4,0.3-0.8,0.5-1.3,0.6c-0.6,0.1-1.2-0.1-1.7-0.5c-0.4-0.4-0.7-0.8-0.8-1.4
	c0-0.6,0.2-1.1,0.5-1.5c0.4-0.4,0.8-0.6,1.4-0.7c0.1,0,0.2,0,0.3,0c0.7,0,1.3,0.3,1.8,0.8C15.1,10.4,15,11.5,14.2,12.2z"/>
<path id="XMLID_77_" class="st4" d="M18.3,10.8c0-0.4-0.1-0.8-0.3-1.2c-0.3-1-1-1.7-1.8-2.4c-1.7-1.3-3.4-2.6-5.1-3.9
	c-0.4-0.3-0.9-0.3-1.3,0C9.7,3.4,9.6,3.6,9.6,3.8c0,0.2,0.1,0.4,0.3,0.5c0.7,0.6,1.4,1.1,2,1.7c0,0,0,0,0.1,0c0,0,0,0,0,0h-0.1
	c-2.1,0-4.3,0-6.4,0c-0.1,0-0.2,0-0.4,0C4.7,6.2,4.4,6.4,4.3,6.7C4.1,6.9,4.2,7.3,4.4,7.5c0.1,0.1,0.3,0.2,0.5,0.2
	c0.2,0,0.4,0,0.6,0c0.9,0,1.8,0,2.7,0c0,0,0,0,0.1,0c0,0-0.1,0-0.1,0.1c-2,1.5-3.9,3-5.9,4.5c-0.3,0.2-0.5,0.5-0.6,0.9
	c0,0.3,0.1,0.6,0.3,0.8c0.3,0.2,0.6,0.3,0.9,0.2c0.3,0,0.5-0.2,0.8-0.4c1-0.8,1.9-1.6,2.9-2.4c0.1,0,0.1-0.1,0.2-0.1h0v0.1
	c0,0.1,0,0.3,0,0.4c0,0.4,0.1,0.7,0.2,1.1c0.4,1.2,1.1,2.1,2.1,2.8c1.1,0.8,2.4,1.1,3.7,1c0.4,0,0.7-0.1,1.1-0.1
	c1.3-0.3,2.5-1,3.3-2.1C18,13.3,18.4,12.1,18.3,10.8z M15.1,13c-0.5,0.5-1.2,0.8-1.9,1c-0.3,0.1-0.7,0.1-1,0.1
	c-1.1-0.1-2-0.6-2.7-1.5c-0.3-0.4-0.4-0.8-0.5-1.3C9,10.4,9.2,9.8,9.6,9.1c0.5-0.7,1.2-1.2,2.1-1.4c0.3-0.1,0.7-0.1,1-0.1
	c0.8,0,1.6,0.3,2.3,0.9c0.6,0.5,0.9,1.1,1,1.8c0,0.2,0,0.3,0,0.4C16.1,11.7,15.7,12.4,15.1,13z"/>
</svg>
