<?xml version="1.0" encoding="utf-8"?>
<!-- Generator: Adobe Illustrator 19.0.0, SVG Export Plug-In . SVG Version: 6.00 Build 0)  -->
<svg version="1.1" id="Camada_1" xmlns="http://www.w3.org/2000/svg" xmlns:xlink="http://www.w3.org/1999/xlink" x="0px" y="0px"
	 viewBox="-295 386.3 20.7 20.7" style="enable-background:new -295 386.3 20.7 20.7;" xml:space="preserve">
<style type="text/css">
	.st0{display:none;fill:#389742;}
	.st1{display:none;}
	.st2{display:inline;fill:#FFFFFF;}
	.st3{display:inline;fill:#332356;}
	.st4{display:none;fill:#FFFFFF;}
	.st5{fill:#FFFFFF;}
</style>
<rect id="XMLID_41_" x="-595.2" y="768.5" class="st0" width="33.1" height="28"/>
<g id="XMLID_40_" class="st1">
	<path id="XMLID_55_" class="st2" d="M-580,778.2c-0.7-0.6-1.8-0.9-3.3-0.9s-2.6,0.1-3.4,0.2v10.9h2.5v-3.9c0.2,0,0.5,0,0.8,0
		c1.5,0,2.7-0.4,3.6-1.2c0.7-0.6,1-1.5,1-2.6C-578.8,779.6-579.3,778.7-580,778.2z M-583.4,782.6c-0.4,0-0.6,0-0.8-0.1v-3.2
		c0.2,0,0.5-0.1,1-0.1c1.2,0,1.9,0.6,2,1.6C-581.3,781.9-582.1,782.6-583.4,782.6z"/>
	<path id="XMLID_52_" class="st2" d="M-572.6,786c0,1.5-1.2,2.6-3.5,2.6c-1,0-2-0.2-2.6-0.6l0.4-1.8c0.5,0.3,1.4,0.6,2.1,0.6
		c0.8,0,1.1-0.3,1.1-0.7s-0.3-0.6-1.2-0.9c-1.6-0.5-2.3-1.5-2.3-2.4c0-1.5,1.3-2.6,3.3-2.6c0.9,0,1.8,0.2,2.3,0.5l-0.4,1.7
		c-0.4-0.2-1-0.5-1.7-0.5c-0.6,0-1,0.3-1,0.7s0.3,0.6,1.3,0.9C-573.3,784-572.6,784.8-572.6,786z"/>
</g>
<g id="XMLID_43_" class="st1">
	<path id="XMLID_50_" class="st3" d="M-581.5,779.6c-0.2,0.6-1.1,4.4-1.1,4.4h2.4C-580.3,784-581.4,780.2-581.5,779.6L-581.5,779.6z
		"/>
	<path id="XMLID_44_" class="st3" d="M-590,772.6v20.7h20.7v-20.7H-590z M-579.1,788.6l-0.8-2.8h-3.1l-0.8,2.8h-2.5l3.3-10.9h3.2
		l3.3,10.9H-579.1z M-573.1,788.6h-2.4v-7.9h2.4V788.6L-573.1,788.6z M-574.3,779.8c-0.8,0-1.3-0.5-1.3-1.2s0.5-1.2,1.3-1.2
		s1.3,0.5,1.3,1.2C-573,779.2-573.5,779.8-574.3,779.8z"/>
</g>
<path id="XMLID_93_" class="st4" d="M-571.9,778.6C-571.9,778.6-571.9,778.5-571.9,778.6l-0.2-0.2l-0.1-0.1l0,0l-7.3-2.8
	c-0.1,0-0.2,0-0.4,0l-7.2,2.7l0,0c0,0-0.1,0-0.1,0.1l-0.1,0.1l-0.1,0.1v0.1v9c0,0.2,0.1,0.4,0.3,0.5l7.3,2.7c0.1,0,0.1,0,0.2,0
	s0.1,0,0.2,0l7.3-2.7c0.2-0.1,0.3-0.3,0.3-0.5v-8.9C-571.9,778.7-571.9,778.6-571.9,778.6z M-580.2,789.6l-6.3-2.4v-7.8l6.3,2.4
	V789.6z M-579.7,780.9L-579.7,780.9L-579.7,780.9l-5.8-2.2l5.9-2.3l5.9,2.3L-579.7,780.9z M-572.9,787.3l-6.3,2.3v-7.8l6.3-2.4
	V787.3z"/>
<path id="XMLID_101_" class="st4" d="M-572.7,783.5c-0.1-0.1-0.1-0.4,0-0.5c0.4-1,0.6-2.1,0.5-3.2c-0.3-1.7-1.8-3.1-3.5-3.1
	c-1.9-0.1-3.4,1.1-3.9,2.9c0,0.1,0,0.1-0.1,0.2c-0.3-1.4-1-2.2-2.2-2.8c-1.5-0.7-3.2-0.3-4.3,0.9c-1.1,1.2-1.3,3-0.5,4.4
	c0.1,0.2,0.2,0.3,0.1,0.6c-0.4,0.8-0.6,1.7-0.6,2.7c0,1.7,1.1,3,2.7,3.5s3.3-0.2,4.2-1.5c0.3-0.4,0.5-0.9,0.7-1.3
	c0.4,1.5,1.4,2.5,2.9,2.8c1.6,0.3,2.9-0.2,3.8-1.5C-572,786.3-572,784.9-572.7,783.5z M-583.5,779.3c0.6,0,1.2,0.4,1.2,1
	c0,0.5,0,0.9,0,1.4c-0.5,0-1,0-1.4,0c-0.6,0-1-0.5-1-1.3C-584.6,779.8-584.1,779.3-583.5,779.3z M-575.3,783.1
	c0.4,0.2,0.5,0.5,0.6,0.9c0,0.5,0,1,0,1.5c0,0.6-0.5,1.1-1.2,1.1c-0.6,0-1.2-0.5-1.2-1.1c0-0.4,0-0.7,0-1.1c0-0.2-0.1-0.3-0.3-0.3
	c-1.2,0-2.3,0-3.5,0c-0.7,0-1.1,0.4-1.2,1c0,0.1,0,0.3-0.1,0.4c-0.1,0.7-0.6,1.2-1.3,1.1c-0.6-0.1-1.1-0.7-1.1-1.3
	c0.1-1.9,1.3-3.2,3.1-3.6c0.2,0,0.4,0,0.7,0c0.8,0,1.5,0,2.3,0c1,0,1.4-0.4,1.4-1.4c0-0.8,0.6-1.3,1.4-1.2c0.6,0.1,1,0.5,1,1.1
	c0.1,0.9-0.2,1.6-0.7,2.3c-0.1,0.1-0.1,0.2-0.2,0.3C-575.6,783-575.5,783.1-575.3,783.1z"/>
<path id="XMLID_69_" class="st4" d="M-575.8,784.8c-0.4,0.3-0.8,0.5-1.3,0.6c-0.6,0.1-1.2-0.1-1.7-0.5c-0.4-0.4-0.7-0.8-0.8-1.4
	c0-0.6,0.2-1.1,0.5-1.5c0.4-0.4,0.8-0.6,1.4-0.7c0.1,0,0.2,0,0.3,0c0.7,0,1.3,0.3,1.8,0.8C-574.9,783-575,784.1-575.8,784.8z"/>
<path id="XMLID_77_" class="st4" d="M-571.7,783.4c0-0.4-0.1-0.8-0.3-1.2c-0.3-1-1-1.7-1.8-2.4c-1.7-1.3-3.4-2.6-5.1-3.9
	c-0.4-0.3-0.9-0.3-1.3,0c-0.1,0.1-0.2,0.3-0.2,0.5c0,0.2,0.1,0.4,0.3,0.5c0.7,0.6,1.4,1.1,2,1.7c0,0,0,0,0.1,0l0,0h-0.1
	c-2.1,0-4.3,0-6.4,0c-0.1,0-0.2,0-0.4,0c-0.4,0.2-0.7,0.4-0.8,0.7c-0.2,0.2-0.1,0.6,0.1,0.8c0.1,0.1,0.3,0.2,0.5,0.2s0.4,0,0.6,0
	c0.9,0,1.8,0,2.7,0c0,0,0,0,0.1,0c0,0-0.1,0-0.1,0.1c-2,1.5-3.9,3-5.9,4.5c-0.3,0.2-0.5,0.5-0.6,0.9c0,0.3,0.1,0.6,0.3,0.8
	c0.3,0.2,0.6,0.3,0.9,0.2c0.3,0,0.5-0.2,0.8-0.4c1-0.8,1.9-1.6,2.9-2.4c0.1,0,0.1-0.1,0.2-0.1l0,0v0.1c0,0.1,0,0.3,0,0.4
	c0,0.4,0.1,0.7,0.2,1.1c0.4,1.2,1.1,2.1,2.1,2.8c1.1,0.8,2.4,1.1,3.7,1c0.4,0,0.7-0.1,1.1-0.1c1.3-0.3,2.5-1,3.3-2.1
	C-572,785.9-571.6,784.7-571.7,783.4z M-574.9,785.6c-0.5,0.5-1.2,0.8-1.9,1c-0.3,0.1-0.7,0.1-1,0.1c-1.1-0.1-2-0.6-2.7-1.5
	c-0.3-0.4-0.4-0.8-0.5-1.3c0-0.9,0.2-1.5,0.6-2.2c0.5-0.7,1.2-1.2,2.1-1.4c0.3-0.1,0.7-0.1,1-0.1c0.8,0,1.6,0.3,2.3,0.9
	c0.6,0.5,0.9,1.1,1,1.8c0,0.2,0,0.3,0,0.4C-573.9,784.3-574.3,785-574.9,785.6z"/>
<g>
	<path class="st5" d="M-276.3,396.2c-0.8,1-2.4,0.9-2.4,0.9c-0.9,4.1-6.8,6.2-10.7,5.2c-4-1-3.5-5.8-3.5-5.8h11.7c1,0,1-0.3,1-0.3
		c-0.8-2,0.5-3.1,0.5-3.1c1,0.2,1.3,1.9,1.3,1.9c0.8-0.2,1.6,0,1.9,0.2C-276.3,395.5-276.3,395.8-276.3,396.2z"/>
	<rect x="-291.6" y="394.6" class="st5" width="1.6" height="1.5"/>
	<rect x="-289.5" y="394.6" class="st5" width="1.6" height="1.5"/>
	<rect x="-283.4" y="394.6" class="st5" width="1.6" height="1.5"/>
	<rect x="-285.4" y="394.6" class="st5" width="1.6" height="1.5"/>
	<rect x="-285.4" y="390.7" class="st5" width="1.6" height="1.5"/>
	<rect x="-287.5" y="394.6" class="st5" width="1.6" height="1.5"/>
	<rect x="-289.5" y="392.6" class="st5" width="1.6" height="1.5"/>
	<rect x="-285.4" y="392.6" class="st5" width="1.6" height="1.5"/>
	<rect x="-287.5" y="392.6" class="st5" width="1.6" height="1.5"/>
</g>
</svg>
