<?xml version="1.0" encoding="utf-8"?>
<!-- Generator: Adobe Illustrator 16.0.0, SVG Export Plug-In . SVG Version: 6.00 Build 0)  -->
<!DOCTYPE svg PUBLIC "-//W3C//DTD SVG 1.1//EN" "http://www.w3.org/Graphics/SVG/1.1/DTD/svg11.dtd">
<svg version="1.1" id="Layer_1" xmlns="http://www.w3.org/2000/svg" xmlns:xlink="http://www.w3.org/1999/xlink" x="0px" y="0px"
	 width="15.854px" height="15.855px" viewBox="6.248 6.248 15.854 15.855" enable-background="new 6.248 6.248 15.854 15.855"
	 xml:space="preserve">
<path fill="#FFFFFF" d="M14.141,6.32c-4.335,0-7.892,3.557-7.892,7.892c0,1.431,0.385,2.824,1.117,4.042l-1.117,3.85l3.85-1.116
	c1.218,0.73,2.611,1.116,4.042,1.116c4.335,0,7.891-3.557,7.891-7.892C22.031,9.877,18.476,6.32,14.141,6.32z M19.075,17.546
	l-0.368,0.367c-0.52,0.519-1.715,0.478-2.481,0.33c-2.553-0.494-5.529-3.378-6.103-5.875c-0.284-1.238-0.127-2.313,0.283-2.724
	l0.367-0.367c0.203-0.203,0.532-0.202,0.735,0l1.468,1.469c0.099,0.098,0.152,0.228,0.152,0.367c0,0.139-0.053,0.269-0.152,0.367
	l-0.367,0.367c-0.404,0.406-0.404,1.064,0,1.469l2.426,2.393c0.405,0.407,1.062,0.407,1.469,0l0.367-0.367
	c0.189-0.19,0.544-0.19,0.734,0l1.47,1.47C19.275,17.011,19.281,17.338,19.075,17.546z"/>
</svg>
