<?xml version="1.0" encoding="utf-8"?>
<!-- Generator: Adobe Illustrator 16.0.0, SVG Export Plug-In . SVG Version: 6.00 Build 0)  -->
<!DOCTYPE svg PUBLIC "-//W3C//DTD SVG 1.1//EN" "http://www.w3.org/Graphics/SVG/1.1/DTD/svg11.dtd">
<svg version="1.1" id="Layer_1" xmlns="http://www.w3.org/2000/svg" xmlns:xlink="http://www.w3.org/1999/xlink" x="0px" y="0px"
	 width="15.854px" height="15.855px" viewBox="6.248 6.248 15.854 15.855" enable-background="new 6.248 6.248 15.854 15.855"
	 xml:space="preserve">
<path fill="#FFFFFF" d="M14.175,6.414c-4.263,0-7.761,3.498-7.761,7.761c0,3.637,2.553,6.944,5.942,7.762v-2.567
	c-0.336,0.073-0.645,0.073-0.987-0.026c-0.458-0.135-0.831-0.439-1.108-0.907c-0.176-0.297-0.489-0.619-0.815-0.596l-0.08-0.905
	c0.705-0.062,1.315,0.43,1.677,1.038c0.161,0.269,0.346,0.427,0.583,0.498c0.229,0.066,0.476,0.036,0.763-0.066
	c0.073-0.575,0.336-0.79,0.535-1.094l0,0c-2.021-0.302-2.827-1.374-3.147-2.22c-0.423-1.125-0.196-2.529,0.553-3.417
	c0.015-0.018,0.041-0.063,0.031-0.094c-0.343-1.039,0.075-1.896,0.091-1.987c0.396,0.118,0.461-0.118,1.722,0.648l0.219,0.13
	c0.091,0.055,0.063,0.024,0.153,0.017c0.527-0.143,1.082-0.221,1.629-0.229c0.551,0.008,1.103,0.086,1.65,0.235l0.072,0.006
	c-0.007,0,0.019-0.004,0.062-0.029c1.575-0.955,1.519-0.642,1.94-0.78c0.016,0.092,0.429,0.964,0.088,1.988
	c-0.044,0.142,1.367,1.435,0.585,3.511c-0.32,0.846-1.125,1.918-3.146,2.22l0,0c0.258,0.396,0.569,0.605,0.568,1.421v3.205
	c3.39-0.818,5.942-4.125,5.942-7.762C21.937,9.911,18.438,6.414,14.175,6.414z"/>
</svg>
