<?xml version="1.0" encoding="utf-8"?>
<!-- Generator: Adobe Illustrator 16.0.0, SVG Export Plug-In . SVG Version: 6.00 Build 0)  -->
<!DOCTYPE svg PUBLIC "-//W3C//DTD SVG 1.1//EN" "http://www.w3.org/Graphics/SVG/1.1/DTD/svg11.dtd">
<svg version="1.1" id="Layer_1" xmlns="http://www.w3.org/2000/svg" xmlns:xlink="http://www.w3.org/1999/xlink" x="0px" y="0px"
	 width="15.854px" height="15.855px" viewBox="6.248 6.248 15.854 15.855" enable-background="new 6.248 6.248 15.854 15.855"
	 xml:space="preserve">
<path fill="#FFFFFF" d="M19.799,6.248H8.573c-1.282,0-2.325,1.039-2.325,2.315v11.174c0,1.277,1.043,2.315,2.325,2.315h11.226
	c1.283,0,2.325-1.038,2.325-2.315V8.563C22.124,7.286,21.082,6.248,19.799,6.248z M11.861,18.781H10v-6.483h1.861V18.781z
	 M11.861,11.372H10V9.52h1.861V11.372z M18.371,18.781h-1.859v-3.705c0-0.509-0.417-0.925-0.931-0.925
	c-0.513,0-0.93,0.416-0.93,0.925v3.705h-1.861v-6.483h1.861v0.349c0.487-0.15,0.805-0.349,1.396-0.349
	c1.261,0.001,2.324,1.128,2.324,2.461V18.781z"/>
</svg>
