<?xml version="1.0" encoding="utf-8"?>
<!-- Generator: Adobe Illustrator 19.0.0, SVG Export Plug-In . SVG Version: 6.00 Build 0)  -->
<svg version="1.1" id="Camada_1" xmlns="http://www.w3.org/2000/svg" xmlns:xlink="http://www.w3.org/1999/xlink" x="0px" y="0px"
	 viewBox="0 0 20.8 20.8" style="enable-background:new 0 0 20.8 20.8;" xml:space="preserve">
<style type="text/css">
	.st0{display:none;fill:#352358;}
	.st1{display:none;}
	.st2{display:inline;}
	.st3{fill-rule:evenodd;clip-rule:evenodd;fill:#FFFFFF;}
	.st4{fill:#FFFFFF;}
	.st5{display:inline;fill:#FFFFFF;}
	.st6{display:none;fill:#332356;}
</style>
<g id="XMLID_40_">
	<rect id="XMLID_49_" class="st0" width="20.8" height="20.8"/>
	<g id="XMLID_59_" class="st1">
		<g class="st2">
			<path class="st3" d="M17,18.9c-0.1,0-0.2,0-0.4,0c-3.8,0-7.6,0-11.4,0c-0.2,0-0.4,0-0.5-0.1c-0.5-0.1-0.9-0.6-1-1.2
				c0-0.2,0-0.3,0-0.5c0-3.7,0-7.4,0-11.1c0-0.8,0-1.6,0-2.4c0-0.1,0-0.3,0-0.4c0.1-0.6,0.6-1,1.3-1.1c0.1,0,0.1,0,0.2,0
				c3.8,0,7.6,0,11.4,0c0.1,0,0.2,0,0.4,0c0,0.1,0,0.2,0,0.2c0,0.5,0,1,0,1.5c0,4.8,0,9.7,0,14.5C17,18.5,17,18.7,17,18.9z
				 M5.1,16.2c0.1-0.1,0-0.2,0-0.3c0-2.9,0-5.9,0-8.8c0-0.7,0-1.5,0-2.2c0-0.1,0-0.2,0.1-0.3c0.1,0,0.3,0,0.5,0c0,0.1,0,0.2,0,0.4
				c0,3.2,0,6.4,0,9.6c0,0.5,0,1,0,1.5c0,0.1,0,0.2,0.1,0.3c0.1,0,0.2,0,0.3,0c2.9,0,5.9,0,8.8,0c0.4,0,0.8,0,1.3,0
				c0.1,0,0.2,0,0.3-0.1c0-0.1,0-0.3,0-0.4c0-3,0-6,0-9c0-1.2,0-2.5,0-3.7c0-0.1,0-0.2,0-0.3c-0.1,0-0.2,0-0.3,0
				c-3.6,0-7.2,0-10.9,0c-0.1,0-0.2,0-0.3,0C4.6,2.6,4.3,3,4.2,3.3c0,0.1,0,0.2,0,0.3c0,1.4,0,2.8,0,4.2c0,2.7,0,5.4,0,8.2
				c0,0.1,0,0.1,0,0.2c0,0,0,0.1,0,0.2c0.1-0.1,0.3-0.1,0.4-0.1C4.8,16.2,4.9,16.2,5.1,16.2z M5,17.3c0.1,0,0.3,0,0.4,0
				c3.1,0,6.1,0,9.2,0c0.5,0,1,0,1.5,0c0.1,0,0.2,0,0.2-0.1c0-0.1,0-0.3,0-0.4c-0.1,0-0.2,0-0.3,0c-3.6,0-7.2,0-10.9,0
				c-0.1,0-0.2,0-0.3,0c-0.1,0-0.1,0-0.2,0.1c-0.3,0.1-0.5,0.4-0.4,0.8c0,0.3,0.3,0.6,0.7,0.7c0.1,0,0.2,0,0.3,0c2.2,0,4.4,0,6.6,0
				c1.4,0,2.8,0,4.2,0c0.1,0,0.2,0,0.3,0c0-0.1,0-0.3,0-0.4c-0.1-0.1-0.2-0.1-0.3-0.1c-0.5,0-0.9,0-1.4,0c-2.7,0-5.4,0-8.2,0
				c-0.4,0-0.8,0-1.3,0c-0.1,0-0.2,0-0.3,0C5,17.6,5,17.5,5,17.3z"/>
			<path class="st3" d="M15.2,11.1c-0.3,0-7.3,0.1-7.8,0c-0.1,0-0.1,0-0.1,0c0-0.2,0-6.5,0-6.8c0.1,0,0.1,0,0.2,0c0.3,0,0.6,0,0.9,0
				c2.1,0,4.3,0,6.4,0c0.1,0,0.3,0,0.4,0c0,0,0,0.1,0,0.1c0,2.2,0,4.4,0,6.6C15.2,11,15.2,11,15.2,11.1z M14.6,4.8
				c-0.1-0.1-0.3,0-0.4,0c-1.2,0-2.3,0-3.5,0c-0.9,0-1.7,0-2.6,0c-0.1,0-0.2,0-0.4,0c0,0.1,0,0.2,0,0.3c0,0.8,0,1.7,0,2.5
				c0,0.9,0,1.8,0,2.7c0,0.1,0,0.2,0.1,0.3c0.1,0,0.2,0,0.3,0c0.8,0,1.6,0,2.4,0c1.2,0,2.5,0,3.7,0c0.1,0,0.2,0,0.3,0
				c0.1-0.3,0.1-3.7,0-5.5C14.6,4.9,14.6,4.8,14.6,4.8z"/>
			<path class="st3" d="M14.9,13c0,0.2,0,0.3,0,0.5c-0.1,0.1-0.2,0-0.3,0c-2.1,0-4.3,0-6.4,0c-0.1,0-0.2,0-0.3,0
				c-0.1-0.2,0-0.3,0-0.5C8,13,8.1,13,8.2,13c0.8,0,1.7,0,2.5,0c1.3,0,2.6,0,3.9,0C14.7,13,14.8,13,14.9,13z"/>
			<path class="st3" d="M13.5,12c0,0.1,0,0.3,0,0.4c-0.1,0.1-0.2,0-0.3,0c-1.1,0-2.3,0-3.4,0c-0.1,0-0.2,0-0.3,0c-0.1,0-0.1,0-0.2,0
				c-0.1-0.2,0-0.3,0-0.5C9.4,11.9,9.5,12,9.6,12c0.9,0,1.7,0,2.6,0c0.4,0,0.7,0,1.1,0C13.3,12,13.4,11.9,13.5,12z"/>
			<path class="st3" d="M5.6,3.9c-0.2,0.1-0.3,0-0.5,0c-0.1-0.2-0.1-0.3,0-0.5c0.2,0,0.3,0,0.5,0C5.7,3.6,5.6,3.7,5.6,3.9z"/>
			<path class="st3" d="M12.5,6.6c0,0.9-0.7,1.3-1.3,1.3c-0.7,0-1.3-0.5-1.3-1.3c0-0.8,0.7-1.3,1.4-1.3C11.9,5.3,12.6,5.8,12.5,6.6z
				 M11.2,7.4c0.4,0,0.8-0.3,0.8-0.8c0-0.4-0.3-0.8-0.8-0.8c-0.4,0-0.8,0.3-0.8,0.8C10.4,7,10.8,7.4,11.2,7.4z"/>
			<path class="st3" d="M13.2,10.1c-0.1,0-0.2,0-0.3,0c-0.1,0-0.1,0-0.1,0c-0.1-0.1-0.1-0.2-0.1-0.3c-0.1-0.6-0.5-0.9-1-1.1
				c-1-0.3-1.8,0.4-1.9,1.2c0,0.1,0,0.1,0,0.2c-0.2,0.1-0.3,0.1-0.5,0c-0.1-0.1,0-0.2,0-0.3c0.2-0.8,0.7-1.4,1.5-1.6
				c1.1-0.3,2.1,0.4,2.4,1.3C13.2,9.7,13.2,9.8,13.2,10.1z"/>
		</g>
	</g>
</g>
<g id="XMLID_41_" class="st1">
	<g id="XMLID_44_" class="st2">
		<path id="XMLID_48_" class="st4" d="M16.2,14.2c-0.1-0.3-0.5-0.5-0.8-0.7l-2.1-1l-1-0.9l-1.7,1.6h0l0.7,4.8c0,0,0,0,0,0l-0.7,1
			c0,0,0,0-0.1,0c0,0,0,0-0.1,0l-0.7-1c0,0,0,0,0,0l0.7-4.8l0,0l-1.7-1.6l-1,0.9l-2.1,1c-0.3,0.1-0.6,0.3-0.8,0.7
			c0,0-2.3,5.6-1.1,5.6h13.6C18.5,19.8,16.2,14.2,16.2,14.2z"/>
		<path id="XMLID_45_" class="st4" d="M14,4.6c0,0-0.9-1.9-3.8-1.9c0,0,0,0,0,0c-2.7,0-3.5,1.8-3.5,1.8C6.5,5,6.5,5.5,6.5,6.1
			c0,3.4,2,5.5,3.9,5.5c1.8,0,3.8-2,3.9-5.5C14.2,5.6,14.2,5,14,4.6z M10.4,10.8c-1.6,0-2.7-1.9-2.9-3.8C7.2,5.3,9.7,5.2,9.9,6.3
			c0,0.3-0.3,0.7-0.3,0.8c0.2,0.7,3.7-2.2,3.7-0.1C13.3,8.5,11.9,10.8,10.4,10.8z"/>
	</g>
	<polygon id="XMLID_43_" class="st5" points="17.5,6.1 17.5,6.8 16.7,6.8 16.7,7.6 16,7.6 16,6.8 15.2,6.8 15.2,6.1 16,6.1 16,5.3 
		16.7,5.3 16.7,6.1 	"/>
	<polygon id="XMLID_42_" class="st5" points="20,2.2 20,3.3 18.7,3.3 18.7,4.6 17.6,4.6 17.6,3.3 16.3,3.3 16.3,2.2 17.6,2.2 
		17.6,0.9 18.7,0.9 18.7,2.2 	"/>
</g>
<g id="XMLID_50_" class="st1">
	<g id="XMLID_51_" class="st2">
		<g id="XMLID_52_">
			<g id="XMLID_53_">
				<path id="XMLID_57_" class="st4" d="M16.1,14.2c-0.1-0.3-0.5-0.5-0.8-0.7l-2.1-1l-1-0.9l-1.7,1.7h0l0.7,4.8c0,0,0,0,0,0l-0.7,1
					c0,0,0,0-0.1,0c0,0,0,0-0.1,0l-0.7-1c0,0,0,0,0,0l0.7-4.8l0,0l-1.7-1.7l-1,0.9l-2.1,1c-0.3,0.1-0.6,0.3-0.8,0.7
					c0,0-2.3,5.6-1.1,5.6h13.6C18.5,19.8,16.1,14.2,16.1,14.2z"/>
				<path id="XMLID_54_" class="st4" d="M16.3,6.6C16.3,6.6,16.3,6.6,16.3,6.6c0.1-0.1,0.1-0.1,0.1-0.1c0-0.2,0-0.4-0.1-0.6
					l-0.1-0.4c0-0.1-0.1-0.1-0.1-0.1H16l0-1.4l0,0l0.2-0.1c0.1-0.1,0.2-0.2,0.2-0.3c0-0.1-0.1-0.3-0.2-0.3L10.5,1
					c-0.1,0-0.2,0-0.2,0L4.5,3.1c-0.1,0-0.2,0.2-0.2,0.3c0,0.1,0.1,0.3,0.2,0.3l2.1,0.8C6.5,5,6.4,5.6,6.4,6.2c0,3.4,2,5.5,3.9,5.5
					c1.8,0,3.8-2,3.9-5.5c0-0.6-0.1-1.1-0.2-1.6L15.5,4l0,1.3h-0.1c-0.1,0-0.1,0-0.1,0.1l-0.1,1c0,0,0,0.1,0,0.1c0,0,0,0,0.1,0
					 M10.3,10.8c-1.6,0-2.7-1.9-2.9-3.8C7.2,5.3,9.7,5.2,9.8,6.3c0,0.3-0.3,0.7-0.3,0.8c0.2,0.7,3.7-2.2,3.7-0.1
					C13.3,8.5,11.9,10.8,10.3,10.8z"/>
			</g>
		</g>
	</g>
</g>
<rect id="XMLID_124_" y="0" class="st6" width="20.8" height="20.8"/>
<g id="XMLID_61_">
	<g id="XMLID_119_">
		<g id="XMLID_120_">
			<path id="XMLID_121_" class="st4" d="M16.4,5.2c0-0.1-0.1-0.2-0.2-0.3l-0.8-0.2c0-0.1,0-0.1-0.1-0.2l0.4-0.7c0.1-0.1,0-0.3,0-0.4
				L15.2,3c-0.1-0.1-0.2-0.1-0.4,0l-0.7,0.4c-0.1,0-0.1,0-0.2-0.1l-0.2-0.8c0-0.1-0.1-0.2-0.3-0.2c-0.2,0-0.5,0-0.7,0
				c-0.1,0-0.2,0.1-0.3,0.2l-0.2,0.8c-0.1,0-0.1,0-0.2,0.1l-0.7-0.4c-0.1-0.1-0.3,0-0.4,0l-0.5,0.5c-0.1,0.1-0.1,0.2,0,0.4L11,4.5
				c0,0.1,0,0.1-0.1,0.2l-0.8,0.2C10,4.9,9.9,5,9.9,5.2c0,0.2,0,0.5,0,0.7c0,0.1,0.1,0.2,0.2,0.3l0.8,0.2c0,0.1,0,0.1,0.1,0.2
				l-0.4,0.7c-0.1,0.1,0,0.3,0,0.4l0.5,0.5c0.1,0.1,0.2,0.1,0.4,0l0.7-0.4c0.1,0,0.1,0,0.2,0.1l0.2,0.8c0,0.1,0.1,0.2,0.3,0.2
				c0.2,0,0.5,0,0.7,0c0.1,0,0.2-0.1,0.3-0.2L14,7.8c0.1,0,0.1,0,0.2-0.1l0.7,0.4c0.1,0.1,0.3,0,0.4,0l0.5-0.5
				c0.1-0.1,0.1-0.2,0-0.4l-0.4-0.7c0-0.1,0-0.1,0.1-0.2l0.8-0.2c0.1,0,0.2-0.1,0.2-0.3C16.4,5.7,16.4,5.4,16.4,5.2z M15.8,5.6
				l-0.8,0.2c-0.1,0-0.2,0.1-0.2,0.2c0,0.1-0.1,0.2-0.1,0.4c-0.1,0.1,0,0.2,0,0.3l0.4,0.7L15,7.5l-0.7-0.4c-0.1-0.1-0.2-0.1-0.3,0
				c-0.1,0.1-0.2,0.1-0.4,0.1c-0.1,0-0.2,0.1-0.2,0.2l-0.2,0.8c-0.1,0-0.1,0-0.2,0l-0.2-0.8c0-0.1-0.1-0.2-0.2-0.2
				c-0.1,0-0.2-0.1-0.4-0.1c-0.1,0-0.2,0-0.3,0l-0.7,0.4l-0.1-0.1l0.4-0.7c0.1-0.1,0.1-0.2,0-0.3c-0.1-0.1-0.1-0.2-0.1-0.4
				c0-0.1-0.1-0.2-0.2-0.2l-0.8-0.2c0-0.1,0-0.1,0-0.2l0,0l0.8-0.2c0.1,0,0.2-0.1,0.2-0.2c0-0.1,0.1-0.2,0.1-0.4c0-0.1,0-0.2,0-0.3
				l-0.4-0.7l0.1-0.1L12,3.9c0.1,0.1,0.2,0.1,0.3,0c0.1-0.1,0.2-0.1,0.4-0.1c0.1,0,0.2-0.1,0.2-0.2L13,2.8c0.1,0,0.1,0,0.2,0
				l0.2,0.8c0,0.1,0.1,0.2,0.2,0.2c0.1,0,0.2,0.1,0.4,0.1c0.1,0,0.2,0,0.3,0L15,3.6l0.1,0.1l-0.4,0.7c-0.1,0.1-0.1,0.2,0,0.3
				c0.1,0.1,0.1,0.2,0.1,0.4c0,0.1,0.1,0.2,0.2,0.2l0.8,0.2C15.8,5.5,15.8,5.6,15.8,5.6z"/>
		</g>
	</g>
	<g id="XMLID_114_">
		<g id="XMLID_115_">
			<path id="XMLID_116_" class="st4" d="M13.1,4.3c-0.7,0-1.2,0.5-1.2,1.2c0,0.7,0.5,1.2,1.2,1.2c0.7,0,1.2-0.5,1.2-1.2
				S13.8,4.3,13.1,4.3z M13.1,6.1c-0.3,0-0.6-0.3-0.6-0.6c0-0.3,0.3-0.6,0.6-0.6c0.3,0,0.6,0.3,0.6,0.6C13.7,5.9,13.5,6.1,13.1,6.1z
				"/>
		</g>
	</g>
	<g id="XMLID_111_">
		<g id="XMLID_112_">
			<rect id="XMLID_113_" x="16.1" y="2.2" class="st4" width="0.6" height="0.6"/>
		</g>
	</g>
	<g id="XMLID_108_">
		<g id="XMLID_109_">
			<rect id="XMLID_110_" x="17.3" y="2.2" class="st4" width="0.6" height="0.6"/>
		</g>
	</g>
	<g id="XMLID_62_">
		<g id="XMLID_103_">
			<g id="XMLID_104_">
				<path id="XMLID_105_" class="st4" d="M5.3,10c-0.7,0-1.2,0.5-1.2,1.2s0.5,1.2,1.2,1.2s1.2-0.5,1.2-1.2C6.5,10.6,6,10,5.3,10z
					 M5.3,11.8c-0.3,0-0.6-0.3-0.6-0.6c0-0.3,0.3-0.6,0.6-0.6c0.3,0,0.6,0.3,0.6,0.6C5.9,11.6,5.7,11.8,5.3,11.8z"/>
			</g>
		</g>
		<g id="XMLID_63_">
			<g id="XMLID_98_">
				<g id="XMLID_99_">
					<path id="XMLID_100_" class="st4" d="M8.9,16.9H1.4c-0.2,0-0.3,0.1-0.3,0.3v1.5c0,0.2,0.1,0.3,0.3,0.3h7.5
						c0.2,0,0.3-0.1,0.3-0.3v-1.5C9.2,17.1,9.1,16.9,8.9,16.9z M8.6,18.4H1.7v-0.9h6.9V18.4z"/>
				</g>
			</g>
			<g id="XMLID_89_">
				<g id="XMLID_90_">
					<path id="XMLID_91_" class="st4" d="M18.8,1H7.4C7.3,1,7.1,1.2,7.1,1.3v6.8c-1.7-1-3.9-0.4-4.9,1.3c-1,1.7-0.4,3.9,1.3,4.9
						c1.7,1,3.9,0.4,4.9-1.3c0.3-0.5,0.5-1.2,0.5-1.8h3.3V13h-2.1c-0.2,0-0.3,0.1-0.3,0.3v1.5c0,0.2,0.1,0.3,0.3,0.3h6
						c0.2,0,0.3-0.1,0.3-0.3v-1.5c0-0.2-0.1-0.3-0.3-0.3h-1.8v-1.8h4.5c0.2,0,0.3-0.1,0.3-0.3V1.3C19.1,1.2,19,1,18.8,1z M5.3,14.2
						c-1.7,0-3-1.3-3-3s1.3-3,3-3c1.7,0,3,1.3,3,3C8.3,12.9,7,14.2,5.3,14.2z M15.8,13.6v0.9h-5.4v-0.9H15.8z M12.8,13v-1.8h0.9V13
						H12.8z M18.5,10.6H8.9c0-0.2-0.1-0.4-0.2-0.6h9.8V10.6z M18.5,9.4H8.5C8.3,9.1,8,8.8,7.7,8.6V1.6h10.8V9.4z"/>
				</g>
			</g>
			<g id="XMLID_86_">
				<g id="XMLID_87_">
					<rect id="XMLID_88_" x="1.7" y="14.2" class="st4" width="0.6" height="2.1"/>
				</g>
			</g>
			<g id="XMLID_83_">
				<g id="XMLID_84_">
					<rect id="XMLID_85_" x="8" y="14.2" class="st4" width="0.6" height="2.1"/>
				</g>
			</g>
			<g id="XMLID_80_">
				<g id="XMLID_81_">
					<rect id="XMLID_82_" x="6.8" y="15.1" class="st4" width="0.6" height="1.2"/>
				</g>
			</g>
			<g id="XMLID_77_">
				<g id="XMLID_78_">
					<rect id="XMLID_79_" x="2.9" y="15.1" class="st4" width="0.6" height="1.2"/>
				</g>
			</g>
			<g id="XMLID_74_">
				<g id="XMLID_75_">
					<rect id="XMLID_76_" x="4.1" y="15.7" class="st4" width="0.6" height="0.6"/>
				</g>
			</g>
			<g id="XMLID_71_">
				<g id="XMLID_72_">
					<rect id="XMLID_73_" x="5.6" y="15.7" class="st4" width="0.6" height="0.6"/>
				</g>
			</g>
			<g id="XMLID_64_">
				<g id="XMLID_65_">
					<path id="XMLID_66_" class="st4" d="M18.7,15.6c-0.6-0.6-1.5-0.6-2.1,0l-0.8,0.8c-0.6,0.6-0.6,1.5,0,2.1c0.6,0.6,1.5,0.6,2.1,0
						l0.8-0.8C19.3,17.2,19.3,16.2,18.7,15.6z M18,15.9l-0.6,0.6L17,16C17.3,15.8,17.7,15.7,18,15.9z M17.4,18.2
						c-0.4,0.4-0.9,0.4-1.3,0c-0.4-0.4-0.4-0.9,0-1.3c0,0,0,0,0,0l0.4-0.4l1.3,1.3L17.4,18.2z M18.3,17.3L18.3,17.3l-0.4-0.4
						l0.6-0.6C18.6,16.6,18.5,17,18.3,17.3z"/>
				</g>
			</g>
		</g>
	</g>
</g>
</svg>
