<?xml version="1.0" encoding="utf-8"?>
<!-- Generator: Adobe Illustrator 16.0.0, SVG Export Plug-In . SVG Version: 6.00 Build 0)  -->
<!DOCTYPE svg PUBLIC "-//W3C//DTD SVG 1.1//EN" "http://www.w3.org/Graphics/SVG/1.1/DTD/svg11.dtd">
<svg version="1.1" id="Layer_1" xmlns="http://www.w3.org/2000/svg" xmlns:xlink="http://www.w3.org/1999/xlink" x="0px" y="0px"
	 width="28.35px" height="28.35px" viewBox="0 0 28.35 28.35" enable-background="new 0 0 28.35 28.35" xml:space="preserve">
<g transform="translate(0 -1)">
	<g>
		<g>
			<path fill="#FFFFFF" d="M10.807,18.79c0.807,1.137,1.612,2.154,2.146,2.81c0.078,0.096,0.15,0.185,0.221,0.27h-1.611
				c-0.18,0-0.327,0.146-0.327,0.326s0.146,0.327,0.327,0.327h5.224c0.181,0,0.327-0.146,0.327-0.327s-0.146-0.326-0.327-0.326
				h-1.611c0.07-0.085,0.145-0.174,0.222-0.27c0.534-0.653,1.339-1.673,2.146-2.81c0.801-1.106,1.521-2.269,2.156-3.477
				c0.667-1.31,1.006-2.396,1.006-3.231c0.002-1.734-0.686-3.398-1.913-4.624c-0.081-0.085-0.203-0.119-0.317-0.089
				s-0.203,0.119-0.233,0.233s0.005,0.236,0.089,0.318c1.104,1.104,1.724,2.601,1.721,4.163c0,0.73-0.313,1.718-0.934,2.934
				c-0.621,1.181-1.325,2.315-2.107,3.396c-0.796,1.123-1.593,2.129-2.119,2.775c-0.176,0.215-0.333,0.405-0.467,0.565
				c-0.063,0.072-0.154,0.113-0.25,0.113c-0.095,0-0.186-0.041-0.249-0.113c-0.135-0.16-0.292-0.351-0.468-0.565
				c-0.527-0.646-1.323-1.651-2.119-2.775c-0.782-1.08-1.487-2.215-2.108-3.396c-0.62-1.216-0.934-2.204-0.934-2.934
				c0-2.365,1.414-4.501,3.591-5.424c1.463-0.614,3.112-0.614,4.575,0c0.107,0.045,0.231,0.03,0.324-0.04
				c0.094-0.07,0.142-0.185,0.127-0.301c-0.014-0.116-0.088-0.215-0.195-0.261c-3.326-1.402-7.158,0.155-8.562,3.48
				c-0.341,0.806-0.515,1.671-0.514,2.545c0,0.834,0.338,1.921,1.005,3.232C9.285,16.522,10.006,17.685,10.807,18.79z"/>
			<path fill="#FFFFFF" d="M14.175,9.135c0.181,0,0.327-0.146,0.327-0.326c0-0.181-0.146-0.327-0.327-0.327
				c-1.558,0-2.898,1.101-3.202,2.628c-0.304,1.528,0.514,3.058,1.953,3.654s3.099,0.093,3.964-1.203
				c0.865-1.295,0.695-3.021-0.406-4.123c-0.082-0.084-0.203-0.119-0.317-0.089c-0.113,0.03-0.203,0.119-0.232,0.233
				c-0.03,0.114,0.004,0.235,0.088,0.317c0.882,0.881,1.018,2.262,0.325,3.298s-2.02,1.439-3.171,0.962
				c-1.152-0.477-1.806-1.701-1.563-2.923C11.856,10.015,12.929,9.135,14.175,9.135z"/>
			<path fill="#FFFFFF" d="M23.848,23.361L21.84,19.77c-0.183-0.319-0.522-0.515-0.889-0.513h-2.327
				c-0.18,0-0.326,0.146-0.326,0.326c0,0.181,0.146,0.326,0.326,0.326h2.327c0.13-0.002,0.253,0.066,0.319,0.179l2.007,3.592
				c0.056,0.094,0.054,0.21-0.003,0.302c-0.066,0.109-0.188,0.176-0.316,0.173H5.392c-0.128,0.003-0.249-0.063-0.316-0.173
				c-0.057-0.092-0.058-0.208-0.003-0.302l2.007-3.592c0.066-0.112,0.188-0.181,0.319-0.179h2.327c0.181,0,0.327-0.146,0.327-0.326
				c0-0.18-0.146-0.326-0.327-0.326H7.399C7.032,19.254,6.691,19.45,6.51,19.77l-2.008,3.592c-0.167,0.296-0.164,0.658,0.01,0.95
				c0.183,0.312,0.519,0.5,0.879,0.496h17.566c0.361,0.004,0.696-0.185,0.879-0.496C24.011,24.02,24.015,23.657,23.848,23.361z"/>
			<path fill="#FFFFFF" d="M20.379,20.89h-1.306c-0.064,0-0.128,0.019-0.182,0.055l-0.979,0.652
				c-0.149,0.101-0.19,0.303-0.091,0.453c0.101,0.15,0.303,0.191,0.453,0.091l0.896-0.599h1.208c0.181,0,0.326-0.146,0.326-0.326
				S20.56,20.89,20.379,20.89z"/>
			<path fill="#FFFFFF" d="M18.42,23.175c0,0.18,0.146,0.326,0.327,0.326h2.611c0.181,0,0.326-0.146,0.326-0.326
				s-0.146-0.326-0.326-0.326h-2.611C18.565,22.849,18.42,22.995,18.42,23.175z"/>
			<path fill="#FFFFFF" d="M10.257,22.195c0.144,0,0.271-0.094,0.313-0.231c0.042-0.139-0.011-0.287-0.131-0.367l-0.979-0.652
				c-0.053-0.036-0.117-0.055-0.181-0.055H7.971c-0.18,0-0.327,0.146-0.327,0.326s0.146,0.326,0.327,0.326h1.208l0.897,0.598
				C10.13,22.177,10.192,22.195,10.257,22.195z"/>
			<path fill="#FFFFFF" d="M6.992,22.849c-0.181,0-0.327,0.146-0.327,0.326s0.146,0.326,0.327,0.326h2.612
				c0.18,0,0.326-0.146,0.326-0.326s-0.146-0.326-0.326-0.326H6.992z"/>
		</g>
	</g>
</g>
</svg>
