<?xml version="1.0" encoding="utf-8"?>
<!-- Generator: Adobe Illustrator 19.0.0, SVG Export Plug-In . SVG Version: 6.00 Build 0)  -->
<svg version="1.1" id="Layer_1" xmlns="http://www.w3.org/2000/svg" xmlns:xlink="http://www.w3.org/1999/xlink" x="0px" y="0px"
	 viewBox="-291 382.6 28.4 28.4" style="enable-background:new -291 382.6 28.4 28.4;" xml:space="preserve">
<style type="text/css">
	.st0{fill:#FFFFFF;}
</style>
<g>
	<g>
		<path class="st0" d="M-266.9,386c-0.1-0.1-0.3-0.1-0.4,0l-7.2,4.3c-0.2,0.1-0.3,0.4-0.1,0.5c0.1,0.2,0.4,0.3,0.5,0.1l5.2-3.1
			l-9.7,10l-4.8-1.5l6.3-3.7c0.2-0.1,0.3-0.4,0.1-0.5c-0.1-0.2-0.4-0.3-0.5-0.1l-7.1,4.2c-0.1,0.1-0.2,0.2-0.2,0.4s0.1,0.3,0.3,0.3
			l5.7,1.8l2.5,4.6c0,0,0,0,0,0c0,0.1,0.1,0.1,0.2,0.2c0,0,0.1,0,0.2,0c0.1,0,0.2,0,0.3-0.1l2.9-2.8l5.5,1.7c0,0,0.1,0,0.1,0
			c0.1,0,0.2,0,0.2-0.1c0.1-0.1,0.2-0.2,0.2-0.3v-15.5C-266.7,386.2-266.8,386-266.9,386z M-276.2,398.9c0,0.1-0.1,0.1-0.1,0.2v2.4
			l-1.7-3.2l7.7-8L-276.2,398.9z M-275.5,402.2v-2.5l1.9,0.6L-275.5,402.2z M-267.5,401.3l-7.8-2.4l7.8-11.2V401.3z"/>
	</g>
</g>
<g>
	<g>
		<path class="st0" d="M-280.4,399.7c-0.2-0.2-0.4-0.2-0.6,0l-3.7,3.7c-0.2,0.2-0.2,0.4,0,0.6c0.1,0.1,0.2,0.1,0.3,0.1
			c0.1,0,0.2,0,0.3-0.1l3.7-3.7C-280.3,400.1-280.3,399.8-280.4,399.7z"/>
	</g>
</g>
<g>
	<g>
		<path class="st0" d="M-285.4,404.6c-0.2-0.2-0.4-0.2-0.6,0l-0.9,0.9c-0.2,0.2-0.2,0.4,0,0.6c0.1,0.1,0.2,0.1,0.3,0.1
			c0.1,0,0.2,0,0.3-0.1l0.9-0.9C-285.2,405-285.2,404.7-285.4,404.6z"/>
	</g>
</g>
<g>
	<g>
		<path class="st0" d="M-281.3,405.5c-0.1-0.1-0.2-0.1-0.3-0.1c-0.1,0-0.2,0-0.3,0.1c-0.1,0.1-0.1,0.2-0.1,0.3c0,0.1,0,0.2,0.1,0.3
			c0.1,0.1,0.2,0.1,0.3,0.1c0.1,0,0.2,0,0.3-0.1c0.1-0.1,0.1-0.2,0.1-0.3C-281.2,405.6-281.2,405.5-281.3,405.5z"/>
	</g>
</g>
<g>
	<g>
		<path class="st0" d="M-278.4,402.5c-0.2-0.2-0.4-0.2-0.6,0l-2,2c-0.2,0.2-0.2,0.4,0,0.6c0.1,0.1,0.2,0.1,0.3,0.1
			c0.1,0,0.2,0,0.3-0.1l2-2C-278.2,402.9-278.2,402.7-278.4,402.5z"/>
	</g>
</g>
<g>
	<g>
		<path class="st0" d="M-271.6,402.4c-0.2-0.2-0.4-0.2-0.6,0l-2,2c-0.2,0.2-0.2,0.4,0,0.6c0.1,0.1,0.2,0.1,0.3,0.1
			c0.1,0,0.2,0,0.3-0.1l2-2C-271.5,402.8-271.5,402.5-271.6,402.4z"/>
	</g>
</g>
<g>
	<g>
		<path class="st0" d="M-275.7,391.3c-0.1-0.1-0.2-0.1-0.3-0.1c-0.1,0-0.2,0-0.3,0.1c-0.1,0.1-0.1,0.2-0.1,0.3c0,0.1,0,0.2,0.1,0.3
			c0.1,0.1,0.2,0.1,0.3,0.1c0.1,0,0.2,0,0.3-0.1c0.1-0.1,0.1-0.2,0.1-0.3C-275.6,391.5-275.7,391.4-275.7,391.3z"/>
	</g>
</g>
</svg>
